<svg xmlns:dc="http://purl.org/dc/elements/1.1/" xmlns:cc="http://creativecommons.org/ns#" xmlns:rdf="http://www.w3.org/1999/02/22-rdf-syntax-ns#" xmlns:svg="http://www.w3.org/2000/svg" xmlns="http://www.w3.org/2000/svg" xmlns:sodipodi="http://sodipodi.sourceforge.net/DTD/sodipodi-0.dtd" xmlns:inkscape="http://www.inkscape.org/namespaces/inkscape" id="svg2985" version="1.1" inkscape:version="0.48.2 r9819" width="800" height="800">
  <metadata id="metadata2991">
    <rdf:RDF>
      <cc:Work rdf:about="">
        <dc:format>image/svg+xml</dc:format>
        <dc:type rdf:resource="http://purl.org/dc/dcmitype/StillImage"/>
        <dc:title/>
      </cc:Work>
    </rdf:RDF>
  </metadata>
  <defs id="defs2989"/>
  <g id="g3216">
    <g transform="matrix(1.209863,0,0,1.209863,127.98294,49.400268)" id="g5003" style="fill:#1966cc;fill-opacity:1">
      <path inkscape:connector-curvature="0" style="fill:#1966cc;fill-opacity:1;stroke:none" d="m 142.9 223.2 c -0.6 44.9 37.7 82.4 82.5 82.4 44.8 0 81.5 -37.5 81.5 -82.4 0 -44.9 -36.7 -81.3 -81.5 -81.3 -59.3 0 -82.1 48.5 -82.5 81.3 z M 225.4 150.7 c 39.9 0 71.3 32.4 71.3 72.5 0 40 -31.3 71.8 -71.3 71.8 -39.9 0 -72.3 -31.8 -72.3 -71.8 0 -40 32.4 -72.5 72.3 -72.5 z" id="path3854"/>
      <path id="path3857" d="m 122.8 223.2 c 0 58.1 48.6 101.5 102.6 101.5 54 0 101.2 -44.6 101.2 -101.5 0 -56.8 -47.6 -101.9 -101.2 -101.9 -53.6 0 -102.6 41.4 -102.6 101.9 z m 102.6 -92.7 c 46.3 0 91.5 39.8 91.5 92.7 0 53.3 -41 91.7 -91.5 91.7 -52.8 0 -92 -40.5 -92 -91.7 0 -53.1 41.5 -92.7 92 -92.7 z" style="fill:#1966cc;fill-opacity:1;stroke:none" inkscape:connector-curvature="0"/>
      <path inkscape:connector-curvature="0" style="fill:#1966cc;fill-opacity:1;stroke:none" d="m 102.9 223.2 c 0 70.1 57.3 121.7 122.5 121.7 65.2 0 121.7 -53.2 121.7 -121.7 0 -68.5 -56.7 -122.2 -121.7 -122.2 -65.1 0 -122.5 49.8 -122.5 122.2 z M 225.4 111.1 c 59 0 111.5 48.3 111.5 112.1 0 64.3 -51.9 111.9 -112.9 111.9 -60.6 0 -111.5 -50.2 -111.5 -111.9 0 -64.1 52 -112.1 112.9 -112.1 z" id="path3859"/>
    </g>
    <g transform="matrix(1.209863,0,0,1.209863,127.98294,49.400268)" id="g5008" style="fill:#318bff;fill-opacity:1">
      <path inkscape:connector-curvature="0" id="path3819" d="m 219 164.2 12.9 0 0 117.7 -12.9 0 z" style="fill:#318bff;fill-opacity:1;stroke:none"/>
      <path style="fill:#318bff;fill-opacity:1;stroke:none" d="m 192.1 173.4 c 5.2 -4.1 12.9 -6.1 12.9 -6.1 l 0 111.2 c -7.3 -1.7 -12.8 -6 -12.8 -6 z" id="path3821" inkscape:connector-curvature="0"/>
      <path inkscape:connector-curvature="0" id="path3834" d="m 259 173.2 c -5.2 -4.1 -12.9 -6.1 -12.9 -6.1 l 0 111.2 c 7.3 -1.7 12.8 -6 12.8 -6 z" style="fill:#318bff;fill-opacity:1;stroke:none"/>
      <path style="fill:#318bff;fill-opacity:1;stroke:none" d="m 177.9 186.9 0 71.6 c 0 0 -11.9 -11.6 -11.9 -35.6 0 -24 11.9 -36 11.9 -36 z" id="path3836" inkscape:connector-curvature="0"/>
      <path inkscape:connector-curvature="0" id="path3838" d="m 272.3 186.4 0 71.6 c 0 0 11.9 -11.6 11.9 -35.6 0 -24 -11.9 -36 -11.9 -36 z" style="fill:#318bff;fill-opacity:1;stroke:none"/>
    </g>
    <g id="g3386" transform="matrix(1.2082628,-0.06220601,0.06220601,1.2082628,114.47815,63.765565)" style="stroke:none;stroke-opacity:1;fill:#318bff;fill-opacity:1">
      <path inkscape:transform-center-y="-170.68128" inkscape:transform-center-x="-76.646795" style="fill:#318bff;fill-opacity:1;stroke:none" d="M 291.9 105.7 310.7 73.9 295.2 65.5 279.9 99.3 z" id="path4983" inkscape:connector-curvature="0"/>
      <path inkscape:connector-curvature="0" id="path3039" d="m 265.9 94.3 11.7 -35 -16.9 -5 -7.9 36.3 z" style="fill:#318bff;fill-opacity:1;stroke:none" inkscape:transform-center-x="-39.570879" inkscape:transform-center-y="-182.47866"/>
      <path inkscape:transform-center-y="-186.24389" inkscape:transform-center-x="-0.58421047" style="fill:#318bff;fill-opacity:1;stroke:none" d="m 238.7 88.6 4.3 -36.6 -17.5 -1.5 -0.3 37.1 z" id="path3041" inkscape:connector-curvature="0"/>
      <path inkscape:connector-curvature="0" id="path3043" d="m 210.1 88.7 -3.5 -36.7 -17.5 2.2 7.4 36.4 z" style="fill:#318bff;fill-opacity:1;stroke:none" inkscape:transform-center-x="39.859278" inkscape:transform-center-y="-182.25816"/>
      <path inkscape:connector-curvature="0" id="path3045" d="m 182.3 94.7 -11.1 -35.2 -16.6 5.8 14.9 34 z" style="fill:#318bff;fill-opacity:1;stroke:none" inkscape:transform-center-x="77.005702" inkscape:transform-center-y="-170.39675"/>
      <path inkscape:transform-center-y="-151.0419" inkscape:transform-center-x="110.70331" style="fill:#318bff;fill-opacity:1;stroke:none" d="M 156.4 106.4 138.2 74.4 123.2 83.5 144.8 113.7 z" id="path3047" inkscape:connector-curvature="0"/>
      <path inkscape:connector-curvature="0" id="path3049" d="M 133.9 122.9 109.6 95.2 96.7 107.3 124.1 132.4 z" style="fill:#318bff;fill-opacity:1;stroke:none" inkscape:transform-center-x="139.00542" inkscape:transform-center-y="-125.61212"/>
      <path inkscape:transform-center-y="-94.059486" inkscape:transform-center-x="161.89263" style="fill:#318bff;fill-opacity:1;stroke:none" d="M 114.9 144.2 85.3 122.2 75.3 136.7 107.3 155.5 z" id="path3051" inkscape:connector-curvature="0"/>
      <path inkscape:connector-curvature="0" id="path3053" d="m 101 168.4 -33.5 -15.4 -6.8 16.2 35.2 11.8 z" style="fill:#318bff;fill-opacity:1;stroke:none" inkscape:transform-center-x="177.33293" inkscape:transform-center-y="-59.140913"/>
      <path inkscape:transform-center-y="-21.016554" inkscape:transform-center-x="185.30865" style="fill:#318bff;fill-opacity:1;stroke:none" d="m 92.3 195.4 -36 -8.1 -3.3 17.3 36.9 4.2 z" id="path3055" inkscape:connector-curvature="0"/>
      <path inkscape:connector-curvature="0" id="path3057" d="m 89.4 223.2 -36.9 -0.5 0.3 17.6 37 -3.4 z" style="fill:#318bff;fill-opacity:1;stroke:none" inkscape:transform-center-x="185.27175" inkscape:transform-center-y="19.648468"/>
      <path inkscape:transform-center-y="58.019379" inkscape:transform-center-x="177.54339" style="fill:#318bff;fill-opacity:1;stroke:none" d="m 92.4 251.5 -36.2 7.2 4 17.1 35.4 -11.1 z" id="path3059" inkscape:connector-curvature="0"/>
      <path inkscape:transform-center-y="93.729523" inkscape:transform-center-x="161.98088" style="fill:#318bff;fill-opacity:1;stroke:none" d="m 101.2 278.6 -33.9 14.6 7.5 15.9 32.3 -18.2 z" id="path3061" inkscape:connector-curvature="0"/>
      <path inkscape:connector-curvature="0" id="path3063" d="m 115.4 303.2 -30.1 21.3 10.6 14 27.8 -24.6 z" style="fill:#318bff;fill-opacity:1;stroke:none" inkscape:transform-center-x="139.30133" inkscape:transform-center-y="125.25579"/>
      <path inkscape:transform-center-y="150.80729" inkscape:transform-center-x="111.11416" style="fill:#318bff;fill-opacity:1;stroke:none" d="m 134.1 323.9 -25.1 27 13.3 11.5 22.2 -29.8 z" id="path3065" inkscape:connector-curvature="0"/>
      <path inkscape:connector-curvature="0" id="path3067" d="m 157.2 340.6 -18.9 31.7 15.4 8.5 15.5 -33.8 z" style="fill:#318bff;fill-opacity:1;stroke:none" inkscape:transform-center-x="77.373572" inkscape:transform-center-y="170.35992"/>
      <path inkscape:transform-center-y="182.38886" inkscape:transform-center-x="40.006302" style="fill:#318bff;fill-opacity:1;stroke:none" d="m 183.4 352.3 -11.8 35 16.9 5.1 8 -36.3 z" id="path3069" inkscape:connector-curvature="0"/>
      <path inkscape:connector-curvature="0" id="path3071" d="m 211.2 358.1 -4.2 36.6 17.5 1.4 0.3 -37.1 z" style="fill:#318bff;fill-opacity:1;stroke:none" inkscape:transform-center-x="0.20776088" inkscape:transform-center-y="186.24205"/>
      <path inkscape:transform-center-y="182.37853" inkscape:transform-center-x="-39.270245" style="fill:#318bff;fill-opacity:1;stroke:none" d="m 239.1 358 3.4 36.7 17.5 -2.2 -7.3 -36.4 z" id="path3073" inkscape:connector-curvature="0"/>
      <path inkscape:connector-curvature="0" id="path3075" d="m 267 352 11 35.2 16.6 -5.8 -14.8 -34.1 z" style="fill:#318bff;fill-opacity:1;stroke:none" inkscape:transform-center-x="-76.546011" inkscape:transform-center-y="170.59865"/>
      <path inkscape:connector-curvature="0" id="path3077" d="m 292.9 340.4 18.1 32.1 15 -9.1 -21.6 -30.2 z" style="fill:#318bff;fill-opacity:1;stroke:none" inkscape:transform-center-x="-110.34421" inkscape:transform-center-y="151.30178"/>
      <path inkscape:transform-center-y="125.36406" inkscape:transform-center-x="-139.22899" style="fill:#318bff;fill-opacity:1;stroke:none" d="m 315.9 323.6 24.4 27.6 12.8 -12.1 -27.4 -25 z" id="path3079" inkscape:connector-curvature="0"/>
      <path inkscape:connector-curvature="0" id="path3081" d="m 334.4 302.8 29.6 22.1 10.1 -14.4 -32 -18.9 z" style="fill:#318bff;fill-opacity:1;stroke:none" inkscape:transform-center-x="-161.59377" inkscape:transform-center-y="94.57863"/>
      <path inkscape:transform-center-y="58.902433" inkscape:transform-center-x="-177.40972" style="fill:#318bff;fill-opacity:1;stroke:none" d="m 348.7 278.1 33.5 15.4 6.8 -16.2 -35.2 -11.8 z" id="path3083" inkscape:connector-curvature="0"/>
      <path inkscape:connector-curvature="0" id="path3089" d="m 357.4 250.8 36 8 3.3 -17.3 -36.9 -4.1 z" style="fill:#318bff;fill-opacity:1;stroke:none" inkscape:transform-center-x="-185.36108" inkscape:transform-center-y="20.489335"/>
      <path inkscape:transform-center-y="-21.1097" inkscape:transform-center-x="-185.12979" style="fill:#318bff;fill-opacity:1;stroke:none" d="m 360.2 222.4 36.9 0.3 -0.4 -17.6 -36.9 3.7 z" id="path3091" inkscape:connector-curvature="0"/>
      <path inkscape:transform-center-y="-59.321377" inkscape:transform-center-x="-177.12835" style="fill:#318bff;fill-opacity:1;stroke:none" d="m 357.1 194.1 36.1 -7.5 -4.1 -17.1 -35.4 11.3 z" id="path3093" inkscape:connector-curvature="0"/>
      <path inkscape:connector-curvature="0" id="path3095" d="m 348 167.2 33.8 -14.8 -7.6 -15.9 -32.2 18.5 z" style="fill:#318bff;fill-opacity:1;stroke:none" inkscape:transform-center-x="-161.33109" inkscape:transform-center-y="-94.862158"/>
      <path inkscape:transform-center-y="-125.64826" inkscape:transform-center-x="-138.94905" style="fill:#318bff;fill-opacity:1;stroke:none" d="m 334 143.2 30 -21.4 -10.7 -14 -27.7 24.7 z" id="path3097" inkscape:connector-curvature="0"/>
      <path inkscape:connector-curvature="0" id="path3099" d="M 314.7 122.1 339.6 94.8 326.2 83.4 304.3 113.3 z" style="fill:#318bff;fill-opacity:1;stroke:none" inkscape:transform-center-x="-109.93261" inkscape:transform-center-y="-151.66526"/>
    </g>
  </g>
  <g style="font-size:45.49009705000000300px;font-style:normal;font-weight:normal;line-height:125%;letter-spacing:0px;word-spacing:0px;fill:#1966cc;fill-opacity:1;stroke:none;font-family:Sans" id="text3418">
    <g id="g3271" style="fill:#1966cc;fill-opacity:1">
      <path id="path3261" style="font-size:163.76434326000000000px;font-variant:normal;font-weight:bold;font-stretch:normal;font-family:Triplex;-inkscape-font-specification:Triplex Bold;fill:#1966cc;fill-opacity:1" d="m 252.3 587.7 0 98.3 19.3 0 0 -29.2 5.9 0 c 5 0 9.9 -0.8 14.6 -2.5 4.7 -1.7 8.9 -4.1 12.6 -7.2 3.7 -3.1 6.6 -6.8 8.7 -11.1 2.1 -4.3 3.1 -8.8 3.1 -13.8 -0 -4.9 -1 -9.5 -3.1 -13.8 -2.1 -4.3 -5 -7.9 -8.7 -11.1 -3.7 -3.1 -7.9 -5.5 -12.6 -7.2 -4.7 -1.7 -9.6 -2.5 -14.6 -2.5 z m 25.2 19.3 c 5.1 0 9.6 1.4 13.5 4.2 3.9 2.8 5.8 6.5 5.8 11.1 -0 4.6 -1.9 8.3 -5.8 11.1 -3.9 2.8 -8.4 4.2 -13.5 4.2 l -5.9 0 0 -30.5 z"/>
      <path inkscape:connector-curvature="0" id="path3263" style="font-size:163.76434326px;font-variant:normal;font-weight:bold;font-stretch:normal;fill:#1966cc;fill-opacity:1;font-family:Triplex;-inkscape-font-specification:Triplex Bold" d="m 373.6 627.6 -3.6 -19.5 c -2.6 0 -5.3 0.5 -7.9 1.6 -2.7 1.1 -5.2 2.4 -7.5 3.9 -2.3 1.5 -4.1 2.8 -5.4 3.9 -1.3 1.1 -2.2 1.9 -2.8 2.3 -0.1 -0.2 -0.5 -0.8 -1.1 -1.7 -0.7 -0.9 -1.5 -2 -2.6 -3.4 -1.1 -1.3 -2.1 -2.5 -3.1 -3.6 -1 -1.1 -1.9 -1.9 -2.6 -2.5 l -15.7 9.3 c 4.3 3.3 7.4 6.9 9.4 10.9 2 4 3 8.7 3 14 l 0 42.9 18.7 0 0 -44.4 c 0.4 -0.5 1.3 -1.5 2.5 -2.8 1.2 -1.3 2.8 -2.8 4.7 -4.6 2 -1.7 4.2 -3.3 6.7 -4.6 2.5 -1.3 5 -2 7.4 -2 z"/>
      <path inkscape:connector-curvature="0" id="path3265" style="font-size:163.76434326px;font-variant:normal;font-weight:bold;font-stretch:normal;fill:#1966cc;fill-opacity:1;font-family:Triplex;-inkscape-font-specification:Triplex Bold" d="m 401.8 658.6 c 1 0 1.9 0 2.8 0 19.7 0 41.5 -10.6 40.3 -27 -0.7 -9.4 -3.5 -12.6 -8.5 -16.8 -5.2 -4.1 -13.9 -6.4 -19.9 -6.4 -4.9 -0 -10 1.6 -14.2 3.8 -4.2 2.1 -7.9 4.6 -11 8.4 -3.1 3.8 -5.6 7.9 -7.3 12.8 -1.6 4.9 -2.5 9.9 -2.5 15 0 5.1 0.8 10.1 2.5 15 1.6 4.9 4 9.2 7 12.9 3 3.8 6.6 6.7 10.8 8.9 4.2 2.2 8.8 3.3 13.8 3.3 3.9 0 7.6 -0.7 11 -2 3.4 -1.3 6.2 -2.8 8.5 -4.6 2.3 -1.7 4 -3.3 5.2 -4.6 1.2 -1.3 2 -2.2 2.5 -2.8 l -10.5 -10.5 c -0.9 1.1 -2.7 2.4 -5.5 4 -2.8 1.6 -6.5 2.4 -11.2 2.4 -2.4 0 -4.4 -0.5 -6.1 -1.4 -1.7 -0.9 -3.1 -2.1 -4.2 -3.4 -1.1 -1.4 -1.9 -2.6 -2.3 -3.6 -0.4 -1 -0.9 -2.2 -1.3 -3.4 z m 13.7 -34 c 3.3 0 5.7 0 8.9 2 2 1.3 3.8 3.3 3.7 5.6 -0.3 5.4 -8.8 8.9 -15 10 -4.3 0.8 -5.9 1.2 -12.9 1.2 0.1 -0.8 0.2 -1.2 0.6 -2.9 0.4 -1.7 1.3 -4.1 2.4 -6.3 1 -2.2 2.6 -4.1 4.6 -5.8 2 -1.7 4.9 -3.8 7.8 -3.8 z"/>
      <path id="path3267" style="font-size:163.76434326000000000px;font-variant:normal;font-weight:bold;font-stretch:normal;font-family:Triplex;-inkscape-font-specification:Triplex Bold;fill:#1966cc;fill-opacity:1" d="m 455.3 610.6 0 18.3 28.7 0 -30.3 57 59.6 0 0 -18.3 -30.3 0 30.3 -57 z"/>
      <path id="path3269" style="font-size:163.76434326000000000px;font-variant:normal;font-weight:bold;font-stretch:normal;font-family:Triplex;-inkscape-font-specification:Triplex Bold;fill:#1966cc;fill-opacity:1" d="m 538.5 575.7 c -3.2 0 -5.8 1.1 -8 3.3 -2.2 2.2 -3.3 4.9 -3.3 8 -0 3.2 1.1 5.8 3.3 8 2.2 2.2 4.9 3.3 8 3.3 3.2 0 5.8 -1.1 8 -3.3 2.2 -2.2 3.3 -4.9 3.3 -8 -0 -3.2 -1.1 -5.8 -3.3 -8 -2.2 -2.2 -4.9 -3.3 -8 -3.3 z m 9.5 34.9 -19 0 0 75.3 19 0 z"/>
    </g>
  </g>
</svg>
